<svg width="120" height="120" viewBox="0 0 120 120" fill="none" xmlns="http://www.w3.org/2000/svg">
<path d="M39.7705 78.7974L60.1991 63.7885L80.2946 78.7974" stroke="#EF6E57" stroke-width="14.4086" stroke-linecap="round" stroke-linejoin="round"/>
<path fill-rule="evenodd" clip-rule="evenodd" d="M20.9236 24.0143C16.0001 24.0143 12.0088 28.1045 12.0088 33.1501V66.0393C12.0088 89.249 36.5245 108.064 59.8145 108.064C83.1044 108.064 108.066 90.1351 108.066 66.0393V33.1501C108.066 28.1045 104.075 24.0143 99.1511 24.0143H20.9236ZM56.3554 64.8666C58.4838 66.0222 61.0504 66.031 63.1867 64.89L92.6947 49.1307C96.2043 47.2563 97.53 42.8917 95.6556 39.382C93.7812 35.8724 89.4165 34.5467 85.9069 36.4211L59.8209 50.3529L34.2034 36.4446C30.7067 34.5461 26.3331 35.8418 24.4347 39.3385C22.5362 42.8352 23.8319 47.2088 27.3286 49.1072L56.3554 64.8666Z" fill="#233F88" fill-opacity="0.9"/>
</svg>
